# xmcd
#
# Track frame offsets:
#	150
#	15452
#	30509
#	44457
#	58260
#	70145
#	88710
#	105213
#	115265
#	128480
#	139808
#	153125
#
# Disc length: 2303 seconds
#
# Revision: 0
# Processed by: cddbd v1.5.2PL0 Copyright (c) Steve Scherf et al.
# Submitted via: EasyCDDAExtractor 9.1.3.1
#
DISCID=9108fd0c
DTITLE=Ronnie Milsap - Out Where The Bright Lights Are Glowing
DYEAR=1981
DGENRE=Country
TTITLE0=Out Where the Bright Lights are Glowing
TTITLE1=Four Walls
TTITLE2=Pride Goes Before a Fall
TTITLE3=I'm Beginning To Forget You
TTITLE4=He'll Have To Go
TTITLE5=I'm Gettin' Better
TTITLE6=Am I Losing You
TTITLE7=I Won't Forget You
TTITLE8=I Guess I'm Crazy (For Loving You)
TTITLE9=When Two Worlds Collide
TTITLE10=Missing You
TTITLE11=Dear Friend
EXTD=
EXTT0=
EXTT1=
EXTT2=
EXTT3=
EXTT4=
EXTT5=
EXTT6=
EXTT7=
EXTT8=
EXTT9=
EXTT10=
EXTT11=
PLAYORDER=
